HIERARCHY
ROOT Pelvis
{
	OFFSET 0.000000 0.941512 0.000000
	CHANNELS 6 Xposition Yposition Zposition Zrotation Yrotation Xrotation 
	JOINT Pelvis_L_Hip
	{
		OFFSET 0.000000 0.000000 0.000000
		CHANNELS 3 Zrotation Yrotation Xrotation
		JOINT L_Hip
		{
			OFFSET 0.062321 -0.080322 -0.016990
			CHANNELS 3 Zrotation Yrotation Xrotation
			JOINT L_Knee
			{
				OFFSET 0.093051 -0.381305 -0.029784
				CHANNELS 3 Zrotation Yrotation Xrotation
				JOINT L_Ankle
				{
					OFFSET -0.010371 -0.431000 -0.033614
					CHANNELS 3 Zrotation Yrotation Xrotation
					End Site #name: L_Foot
					{
						OFFSET 0.069299 -0.038670 0.119418
					}
				}
			}
		}
	}
	JOINT Pelvis_R_Hip
	{
		OFFSET 0.000000 0.000000 0.000000
		CHANNELS 3 Zrotation Yrotation Xrotation
		JOINT R_Hip
		{
			OFFSET -0.055334 -0.094904 -0.002373
			CHANNELS 3 Zrotation Yrotation Xrotation
			JOINT R_Knee
			{
				OFFSET -0.064207 -0.384370 -0.019592
				CHANNELS 3 Zrotation Yrotation Xrotation
				JOINT R_Ankle
				{
					OFFSET 0.025418 -0.419734 -0.065953
					CHANNELS 3 Zrotation Yrotation Xrotation
					End Site #name: R_Foot
					{
						OFFSET -0.057233 -0.039888 0.132134
					}
				}
			}
		}
	}
	JOINT Pelvis_Spine1
	{
		OFFSET 0.000000 0.000000 0.000000
		CHANNELS 3 Zrotation Yrotation Xrotation
		JOINT Spine1
		{
			OFFSET -0.005562 0.124093 -0.043360
			CHANNELS 3 Zrotation Yrotation Xrotation
			JOINT Spine2
			{
				OFFSET 0.012244 0.139499 0.029894
				CHANNELS 3 Zrotation Yrotation Xrotation
				JOINT Spine3
				{
					OFFSET -0.002556 0.056561 0.009225
					CHANNELS 3 Zrotation Yrotation Xrotation
					JOINT Spine3_Neck
					{
						OFFSET 0.000000 0.000000 0.000000
						CHANNELS 3 Zrotation Yrotation Xrotation
						JOINT Neck
						{
							OFFSET -0.005205 0.217920 -0.024551
							CHANNELS 3 Zrotation Yrotation Xrotation
							End Site #name: Head
							{
								OFFSET 0.002365 0.091850 0.046637
							}
						}
					}
					JOINT Spine3_L_Collar
					{
						OFFSET 0.000000 0.000000 0.000000
						CHANNELS 3 Zrotation Yrotation Xrotation
						JOINT L_Collar
						{
							OFFSET 0.072225 0.116603 -0.009480
							CHANNELS 3 Zrotation Yrotation Xrotation
							JOINT L_Shoulder
							{
								OFFSET 0.115937 -0.058643 -0.021018
								CHANNELS 3 Zrotation Yrotation Xrotation
								JOINT L_Elbow
								{
									OFFSET 0.021994 -0.254722 -0.024492
									CHANNELS 3 Zrotation Yrotation Xrotation
									End Site #name: L_Wrist
									{
										OFFSET 0.048810 -0.240214 0.103329
									}
								}
							}
						}
					}
					JOINT Spine3_R_Collar
					{
						OFFSET 0.000000 0.000000 0.000000
						CHANNELS 3 Zrotation Yrotation Xrotation
						JOINT R_Collar
						{
							OFFSET -0.073372 0.120704 -0.024611
							CHANNELS 3 Zrotation Yrotation Xrotation
							JOINT R_Shoulder
							{
								OFFSET -0.108089 -0.054969 -0.020504
								CHANNELS 3 Zrotation Yrotation Xrotation
								JOINT R_Elbow
								{
									OFFSET -0.033684 -0.260739 0.009889
									CHANNELS 3 Zrotation Yrotation Xrotation
									End Site #name: R_Wrist
									{
										OFFSET -0.067980 -0.232763 0.118463
									}
								}
							}
						}
					}
				}
			}
		}
	}
}
MOTION
Frames: 16
Frame Time: 0.041667
0.000000 0.973007 0.000000 -2.961369 -0.070943 5.919380 0.000000 0.000000 0.000000 -3.581281 -1.637722 -7.144634 8.477098 -0.941534 2.782036 -10.589577 -13.762032 9.444107 0.000000 0.000000 0.000000 4.577625 1.219708 -7.189666 -4.677038 0.557670 -1.751224 7.239839 9.772656 8.465934 0.000000 0.000000 0.000000 5.601889 1.194004 -17.879959 -7.988887 4.416236 25.057713 4.521840 1.436991 -20.582692 0.000000 0.000000 0.000000 -0.072758 -0.287269 11.498798 0.000000 0.000000 0.000000 23.301229 -5.090854 0.620589 -24.377238 2.426625 2.576547 0.561939 1.510547 6.525531 0.000000 0.000000 0.000000 -22.833044 -2.318313 6.681809 24.888657 -1.221362 8.316536 0.278494 -0.484423 2.121311 
0.000072 0.972828 0.000231 -2.981651 -0.073583 5.914277 0.000000 0.000000 0.000000 -3.563737 -1.631005 -7.118544 8.485131 -0.941387 2.778991 -10.606225 -13.770517 9.461973 0.000000 0.000000 0.000000 4.596998 1.215212 -7.167960 -4.680749 0.558442 -1.747250 7.227124 9.780514 8.435053 0.000000 0.000000 0.000000 5.644637 1.186642 -17.845479 -8.012777 4.424141 25.044474 4.513487 1.436526 -20.585728 0.000000 0.000000 0.000000 -0.071528 -0.288020 11.500791 0.000000 0.000000 0.000000 23.207971 -5.085952 0.607908 -24.197819 2.422713 2.617605 0.533067 1.503482 6.540466 0.000000 0.000000 0.000000 -22.761952 -2.327508 6.668392 24.803890 -1.221965 8.318328 0.280603 -0.485407 2.128062 
0.000105 0.972573 0.000603 -3.030169 -0.074963 5.861273 0.000000 0.000000 0.000000 -3.517864 -1.608553 -7.031013 8.495240 -0.937355 2.721790 -10.670416 -13.804064 9.539188 0.000000 0.000000 0.000000 4.662183 1.200430 -7.094809 -4.685227 0.558652 -1.750673 7.175686 9.764517 8.347994 0.000000 0.000000 0.000000 5.722310 1.179814 -17.828847 -8.039523 4.438782 25.068388 4.498832 1.423332 -20.589498 0.000000 0.000000 0.000000 -0.064276 -0.292903 11.530885 0.000000 0.000000 0.000000 22.964523 -5.103679 0.550146 -23.770302 2.391645 2.646237 0.407720 1.481202 6.656828 0.000000 0.000000 0.000000 -22.537206 -2.368385 6.635705 24.564862 -1.221441 8.319333 0.306373 -0.494452 2.201532 
0.000018 0.972284 0.001059 -3.072387 -0.095149 5.736106 0.000000 0.000000 0.000000 -3.462204 -1.558719 -6.839246 8.499752 -0.929893 2.641412 -10.712310 -13.848330 9.579003 0.000000 0.000000 0.000000 4.739261 1.171127 -6.951086 -4.669916 0.558615 -1.731806 7.063285 9.689166 8.184377 0.000000 0.000000 0.000000 5.775603 1.185454 -17.887711 -8.017570 4.453142 25.246296 4.454114 1.386364 -20.629744 0.000000 0.000000 0.000000 -0.199503 -0.215415 11.709803 0.000000 0.000000 0.000000 22.489369 -5.205788 0.380314 -22.913209 2.334860 2.725747 0.121089 1.381047 6.666784 0.000000 0.000000 0.000000 -22.072019 -2.451419 6.570058 24.060942 -1.201565 8.270575 0.348853 -0.470959 2.190357 
0.000151 0.971749 0.001376 -3.090430 -0.093852 5.544170 0.000000 0.000000 0.000000 -3.424689 -1.505962 -6.636296 8.508132 -0.925104 2.592344 -10.880204 -13.989738 9.745540 0.000000 0.000000 0.000000 4.772432 1.137531 -6.784555 -4.660457 0.564174 -1.665385 6.935441 9.622117 7.987503 0.000000 0.000000 0.000000 5.793852 1.190412 -17.921229 -7.937051 4.466223 25.578307 4.467576 1.365985 -20.802505 0.000000 0.000000 0.000000 -0.699526 0.077389 12.053032 0.000000 0.000000 0.000000 22.040888 -5.620541 -0.027903 -21.984335 2.261853 2.793751 -0.283012 1.115619 6.054599 0.000000 0.000000 0.000000 -21.617298 -2.438330 6.429993 23.457439 -1.235756 8.390289 -0.054728 -0.284742 0.876039 
0.000422 0.971383 0.001510 -3.067205 0.013995 5.351576 0.000000 0.000000 0.000000 -3.437004 -1.470094 -6.502061 8.509841 -0.923510 2.571077 -11.115226 -14.142875 9.999042 0.000000 0.000000 0.000000 4.744578 1.104322 -6.617901 -4.633902 0.570164 -1.573303 6.795140 9.497634 7.810958 0.000000 0.000000 0.000000 5.798222 1.223152 -18.152029 -7.798017 4.447393 25.914442 4.476956 1.373102 -20.973570 0.000000 0.000000 0.000000 -1.658185 0.638945 13.198872 0.000000 0.000000 0.000000 21.991525 -6.195228 -0.479625 -21.292366 2.246553 2.994050 -0.849706 0.298032 3.115581 0.000000 0.000000 0.000000 -21.839631 -2.482759 6.515769 23.531054 -1.468346 9.073913 -0.876978 0.799579 -4.273068 
0.000582 0.971233 0.001403 -3.011700 0.131946 5.253261 0.000000 0.000000 0.000000 -3.480197 -1.474197 -6.520625 8.514172 -0.926422 2.613554 -11.358818 -14.243035 10.282421 0.000000 0.000000 0.000000 4.705824 1.100438 -6.593421 -4.675440 0.590145 -1.435748 6.721907 9.330428 7.788691 0.000000 0.000000 0.000000 5.820247 1.285634 -18.613996 -7.754867 4.427007 25.948972 4.494795 1.410965 -20.969145 0.000000 0.000000 0.000000 -2.800839 1.343312 15.006535 0.000000 0.000000 0.000000 22.326740 -6.394402 -0.568750 -20.522656 2.225582 3.185612 -1.865994 -1.496215 -3.007001 0.000000 0.000000 0.000000 -22.671817 -2.590084 6.824481 23.617005 -1.772492 9.940621 -0.608732 3.762782 -13.175869 
0.000719 0.970997 0.000804 -2.893605 0.178871 5.190953 0.000000 0.000000 0.000000 -3.619472 -1.502737 -6.637046 8.545226 -0.944027 2.758772 -11.535200 -14.344911 10.477037 0.000000 0.000000 0.000000 4.590218 1.111660 -6.643197 -4.747077 0.612105 -1.331378 6.774673 9.239514 7.955438 0.000000 0.000000 0.000000 5.811342 1.365549 -19.194763 -7.789076 4.429860 25.887338 4.572104 1.609659 -20.845782 0.000000 0.000000 0.000000 -3.936273 2.088902 16.938261 0.000000 0.000000 0.000000 22.910835 -6.308777 -0.376714 -19.509777 2.027774 2.797343 -3.728420 -4.543811 -11.237900 0.000000 0.000000 0.000000 -23.899651 -2.389933 6.996520 23.101673 -1.975424 10.547871 1.224604 9.209925 -24.142439 
0.000676 0.970290 0.000601 -2.806548 0.172125 5.234344 0.000000 0.000000 0.000000 -3.537310 -1.554515 -6.818799 8.113317 -0.916903 2.937476 -11.171140 -14.191174 10.038533 0.000000 0.000000 0.000000 4.349392 1.150018 -6.828565 -4.404566 0.583823 -1.108977 6.489349 8.806966 7.688912 0.000000 0.000000 0.000000 5.810412 1.470442 -19.966582 -8.068873 4.473280 25.358392 4.873509 2.243849 -20.084535 0.000000 0.000000 0.000000 -4.624025 2.530226 17.808322 0.000000 0.000000 0.000000 24.107017 -7.236611 -0.855079 -18.733780 1.744141 1.907178 -6.400297 -8.744363 -19.568928 0.000000 0.000000 0.000000 -26.060646 -0.248321 5.773760 23.307720 -2.432297 11.798733 3.085415 16.568740 -36.166863 
0.000315 0.970665 0.000142 -2.609002 0.133534 4.955416 0.000000 0.000000 0.000000 -3.722974 -1.486390 -6.577537 8.029984 -0.926567 3.130412 -11.127746 -14.375142 9.887694 0.000000 0.000000 0.000000 4.111128 1.090156 -6.529083 -4.375686 0.575503 -1.147744 6.655370 9.004918 7.875178 0.000000 0.000000 0.000000 5.832087 1.515214 -20.291008 -8.463726 4.702320 25.831452 5.213133 2.811844 -20.032238 0.000000 0.000000 0.000000 -4.986560 2.767741 18.988485 0.000000 0.000000 0.000000 25.400034 -7.512039 -0.809221 -18.235521 1.121115 -0.376276 -7.253666 -12.690289 -28.707757 0.000000 0.000000 0.000000 -27.730119 1.060150 5.033294 23.091097 -1.976049 10.508451 4.187528 24.148769 -46.813656 
-0.000269 0.970443 -0.001208 -2.447209 0.138389 4.731921 0.000000 0.000000 0.000000 -3.848940 -1.453861 -6.463939 7.949583 -0.934576 3.301572 -11.139152 -14.593082 9.797785 0.000000 0.000000 0.000000 3.920117 1.052083 -6.333462 -4.325869 0.559727 -1.232725 6.673184 8.958091 7.941815 0.000000 0.000000 0.000000 5.937618 1.545668 -20.538100 -8.881853 4.982335 26.576996 5.585214 3.471327 -20.243334 0.000000 0.000000 0.000000 -5.332246 2.965813 19.492411 0.000000 0.000000 0.000000 25.497827 -7.894113 -1.029390 -15.972594 0.333012 -3.099158 -8.243163 -17.211914 -37.252348 0.000000 0.000000 0.000000 -27.807257 2.820986 3.436200 21.122162 -1.336395 8.722089 4.702295 31.822388 -56.177203 
-0.001782 0.970395 -0.002819 -2.282505 0.298936 4.656768 0.000000 0.000000 0.000000 -3.904681 -1.477454 -6.553943 7.785823 -0.939273 3.553814 -10.921500 -14.817354 9.367600 0.000000 0.000000 0.000000 3.818858 1.048003 -6.307174 -4.268612 0.558843 -1.159390 6.657399 9.076410 7.845571 0.000000 0.000000 0.000000 5.683267 1.587018 -20.776501 -8.926363 5.037025 26.903938 5.645272 3.983188 -20.366623 0.000000 0.000000 0.000000 -5.662815 3.150308 20.031970 0.000000 0.000000 0.000000 26.333098 -8.377510 -1.210522 -13.867037 -0.523026 -6.680233 -9.065719 -21.316573 -43.863817 0.000000 0.000000 0.000000 -28.363218 4.114313 2.325154 20.950387 -0.192140 5.229618 5.620006 38.155920 -61.800966 
-0.002885 0.970349 -0.003931 -2.083066 0.599359 4.585817 0.000000 0.000000 0.000000 -4.021171 -1.508705 -6.678603 7.721331 -0.949846 3.751161 -10.982341 -15.192941 9.255563 0.000000 0.000000 0.000000 3.605443 1.030867 -6.211231 -4.151953 0.537679 -1.218657 6.595625 8.820987 7.924570 0.000000 0.000000 0.000000 5.425968 1.623857 -20.997259 -9.021109 5.117474 27.328321 5.756812 4.512945 -20.472792 0.000000 0.000000 0.000000 -6.083365 3.360547 19.625607 0.000000 0.000000 0.000000 27.177429 -9.023554 -1.518903 -11.330764 -1.377174 -10.983511 -9.770983 -25.092669 -49.164103 0.000000 0.000000 0.000000 -28.419868 5.526069 0.972880 20.562426 0.797727 2.154306 5.579643 43.267050 -66.982282 
-0.004061 0.970517 -0.004711 -1.909985 0.979332 4.550193 0.000000 0.000000 0.000000 -4.065718 -1.551781 -6.841060 7.636850 -0.953150 3.907367 -11.153542 -15.616831 9.269427 0.000000 0.000000 0.000000 3.446313 1.024517 -6.169180 -4.079198 0.531420 -1.184670 6.533347 8.607401 7.979375 0.000000 0.000000 0.000000 5.139096 1.660297 -21.222765 -9.054479 5.154477 27.671009 5.842080 4.928876 -20.515098 0.000000 0.000000 0.000000 -6.703235 3.709395 19.165802 0.000000 0.000000 0.000000 28.595538 -9.927808 -1.984657 -9.410819 -2.091050 -15.306803 -9.783610 -27.706507 -53.395828 0.000000 0.000000 0.000000 -28.867722 6.844203 -0.231021 21.156344 1.832934 -0.846247 5.691302 47.054973 -70.316307 
-0.004970 0.970922 -0.005347 -1.792322 1.420236 4.539739 0.000000 0.000000 0.000000 -4.072030 -1.598126 -7.013591 7.577932 -0.953872 4.001122 -11.345983 -16.056744 9.305104 0.000000 0.000000 0.000000 3.338177 1.019247 -6.132425 -3.979870 0.520653 -1.161298 6.417368 8.353292 7.963836 0.000000 0.000000 0.000000 4.886092 1.680507 -21.341447 -9.119866 5.173609 27.821020 6.015619 5.281465 -20.451410 0.000000 0.000000 0.000000 -7.431628 4.136865 18.823969 0.000000 0.000000 0.000000 30.140512 -10.728821 -2.365930 -7.853234 -2.696037 -19.578396 -9.419458 -29.616512 -57.068690 0.000000 0.000000 0.000000 -29.269565 7.819237 -1.150491 21.757559 2.759613 -3.410791 6.075205 49.830321 -72.163162 
-0.005670 0.971159 -0.005750 -1.706397 1.807445 4.591788 0.000000 0.000000 0.000000 -4.089359 -1.641858 -7.179052 7.597969 -0.951498 3.966860 -11.645524 -16.442619 9.517262 0.000000 0.000000 0.000000 3.269300 1.022875 -6.144038 -3.917774 0.510999 -1.180067 6.347987 8.099515 8.034653 0.000000 0.000000 0.000000 4.738509 1.696808 -21.460749 -9.204794 5.198280 27.929230 6.105017 5.615161 -20.332278 0.000000 0.000000 0.000000 -8.225161 4.604717 18.444382 0.000000 0.000000 0.000000 31.734299 -11.245806 -2.493407 -6.668244 -3.210068 -23.634798 -8.746736 -30.899776 -60.343237 0.000000 0.000000 0.000000 -29.847574 8.527312 -1.818460 22.680023 3.440145 -5.043297 6.492383 51.646623 -73.103760 
